<?xml version="1.0" encoding="iso-8859-1"?>
<!-- Generator: Adobe Illustrator 19.0.0, SVG Export Plug-In . SVG Version: 6.00 Build 0)  -->
<svg version="1.1" id="Capa_1" xmlns="http://www.w3.org/2000/svg" xmlns:xlink="http://www.w3.org/1999/xlink" x="0px" y="0px"
	 viewBox="0 0 512.001 512.001" style="enable-background:new 0 0 512.001 512.001;" xml:space="preserve">
<path style="fill:#FFE7CF;" d="M384.567,321.742l-78.319-14.549c-10.053-2.021-17.286-13.682-17.286-23.937v-45.696h-48.712h-0.001
	h-48.712v45.696c0,10.254-7.232,21.916-17.286,23.937l-78.318,14.549c-37.252,10.968-62.829,45.163-62.829,83.996v87.197
	c0,6.388,5.178,11.566,11.566,11.566H435.83c6.388,0,11.566-5.178,11.566-11.566v-87.197
	C447.397,366.904,421.82,332.71,384.567,321.742z"/>
<path style="fill:#EDEDED;" d="M233.666,471.633L233.666,471.633L233.666,471.633z"/>
<path style="fill:#423E38;" d="M384.567,321.742l-78.319-14.549l0,0c-36.799,35.595-95.196,35.595-131.995,0l0,0l-78.319,14.549
	c-37.252,10.968-62.829,45.163-62.829,83.996v87.197c0,6.388,5.178,11.566,11.566,11.566H435.83c6.388,0,11.566-5.178,11.566-11.566
	v-87.197C447.397,366.904,421.82,332.71,384.567,321.742z"/>
<path style="fill:#332F2A;" d="M384.567,321.741l-78.319-14.549l0,0c-13.55,13.105-30.029,21.369-47.278,24.823l85.154,17.141
	c37.252,10.968,62.829,26.013,62.829,64.846v90.496h28.877c6.388,0,11.566-5.178,11.566-11.566v-87.197
	C447.397,366.904,421.82,332.709,384.567,321.741z"/>
<path style="fill:#423E38;" d="M309.602,35.919c-16.27-14.01-39.14-26.237-69.351-26.574c-30.211,0.337-53.081,12.565-69.352,26.574
	c-20.753,17.869-31.995,44.405-31.995,71.79v51.34c0,27.385,34.419,115.15,101.346,115.15s101.346-87.765,101.346-115.15v-51.34
	C341.597,80.324,330.354,53.788,309.602,35.919z M295.491,150.952l-27.025,4.114c-20.504,3.122-41.371,3.005-61.838-0.345
	l-21.652-3.544c-11.6-1.899-20.116-11.922-20.116-23.677c0-13.25,10.741-23.992,23.992-23.992h102.799
	c13.25,0,23.992,10.741,23.992,23.992C315.642,139.222,307.079,149.188,295.491,150.952z"/>
<path style="fill:#332F2A;" d="M309.602,35.919c-16.27-14.01-39.14-26.237-69.351-26.574c-7.181,0.08-13.944,0.839-20.306,2.127
	c20.401,4.131,36.643,13.769,49.046,24.447c20.752,17.869,31.995,44.405,31.995,71.791v51.34c0,24.464-27.47,97.103-81.041,112.326
	c6.398,1.818,13.164,2.824,20.306,2.824c66.926,0,101.346-87.765,101.346-115.15v-51.34
	C341.597,80.324,330.354,53.788,309.602,35.919z"/>
<path style="fill:#FFE7CF;" d="M295.491,150.952l-27.025,4.114c-20.504,3.122-41.371,3.005-61.838-0.345l-21.652-3.544
	c-11.6-1.899-20.116-11.922-20.116-23.677l0,0c0-13.25,10.741-23.992,23.992-23.992H291.65c13.25,0,23.992,10.741,23.992,23.992l0,0
	C315.642,139.222,307.079,149.188,295.491,150.952z"/>
<path style="fill:#332F2A;" d="M372.289,279.48c-11.91-15.579-52.056-26.956-68.486-36.754c-4.54,5.073-9.49,9.776-14.837,13.927
	v26.604c0,10.254,7.232,21.916,17.286,23.937c-17.802,17.22-40.659,26.081-63.679,26.637c-0.773,0.019-1.547,0.006-2.32,0.006
	c-0.774,0-1.547,0.013-2.32-0.006c-23.021-0.556-45.877-9.417-63.678-26.637c10.053-2.021,17.286-13.682,17.286-23.937v-26.604
	c-5.346-4.15-10.296-8.852-14.837-13.927c-16.429,9.798-56.575,21.176-68.486,36.754c-7.907,10.341-8.338,25.336-2.534,36.294
	c3.876,7.318,16.217,14.895,31.953,22.004c65.155,29.436,140.073,29.436,205.229,0.001c15.739-7.11,28.08-14.687,31.957-22.005
	C380.627,304.816,380.196,289.822,372.289,279.48z"/>
<path style="fill:#28231E;" d="M372.289,279.48c-11.91-15.579-52.056-26.956-68.486-36.755c-4.083,4.563-8.516,8.802-13.253,12.633
	c16.29,6.901,33.669,14.751,40.833,24.122c7.907,10.341,8.338,25.336,2.534,36.294c-3.876,7.318-16.219,14.895-31.956,22.005
	c-26.23,11.849-54.042,18.92-82.161,21.229c41.732,3.426,84.14-3.644,123.067-21.229c15.739-7.11,28.08-14.687,31.956-22.005
	C380.627,304.816,380.196,289.822,372.289,279.48z"/>
<g>
	<path style="fill:#82ADBC;" d="M454.297,367.817l4.649-13.193c1.025-2.908-0.502-6.096-3.41-7.121l-59.608-21.004v26.671
		l51.248,18.058C450.084,372.252,453.272,370.726,454.297,367.817z"/>
	<path style="fill:#82ADBC;" d="M376.297,274.722c27.526-12.116,52.252-29.555,73.948-52.224c2.325-2.429,6.14-2.621,8.679-0.416
		c5.934,5.152,11.867,10.305,17.802,15.458c2.703,2.347,2.913,6.484,0.449,9.081c-28.902,30.477-62.788,52.971-100.878,67.086
		V274.722z"/>
</g>
<path style="fill:#9EBECC;" d="M386.623,157.244V40.391c0-5.062-4.104-9.166-9.166-9.166h-13.25v126.02H386.623z"/>
<path style="fill:#BF834C;" d="M388.272,499.17l-16.829-126.086h-2.799c-5.208,0-9.43-4.222-9.43-9.43V146.176
	c0-2.647,2.146-4.792,4.792-4.792h17.825c2.647,0,4.792,2.146,4.792,4.792v39.032c0,8.831,2.9,17.508,8.598,24.254
	c5.87,6.949,9.086,15.749,9.086,24.837v138.783l36.083,112.615c1.066,3.372-0.896,6.953-4.312,7.869l-40.048,10.739
	C392.427,505.275,388.789,502.866,388.272,499.17z"/>
<path style="fill:#E8B287;" d="M404.308,373.083l36.083,112.615c1.066,3.372-0.896,6.953-4.312,7.869l-40.048,10.739
	c-3.605,0.967-7.241-1.442-7.758-5.138l-16.829-126.086H404.308z"/>
<path style="fill:#BF834C;" d="M385.317,478.01l48.529-13.013l6.546,20.702c1.066,3.372-0.896,6.953-4.312,7.869l-40.048,10.739
	c-3.605,0.967-7.241-1.442-7.758-5.138L385.317,478.01z"/>
<g>
	<path style="fill:#F4D3A6;" d="M288.963,283.257V256.67c-11.821,9.178-25.612,15.603-41.333,17.155v36.764
		c0,8.068,4.488,16.987,11.293,21.416c17.268-3.439,33.766-11.691,47.329-24.811h-0.003
		C296.195,305.172,288.963,293.511,288.963,283.257z"/>
	<path style="fill:#F4D3A6;" d="M291.65,103.508h-16.388v50.524l20.228-3.08c11.589-1.765,20.152-11.729,20.152-23.452
		C315.642,114.249,304.9,103.508,291.65,103.508z"/>
</g>
<path d="M193.723,137.915h13.84c4.142,0,7.499-3.357,7.499-7.499s-3.358-7.499-7.499-7.499h-13.84c-4.142,0-7.499,3.357-7.499,7.499
	C186.224,134.558,189.582,137.915,193.723,137.915z"/>
<path d="M272.938,137.915h13.841c4.142,0,7.499-3.357,7.499-7.499s-3.357-7.499-7.499-7.499h-13.841
	c-4.142,0-7.499,3.357-7.499,7.499C265.439,134.558,268.796,137.915,272.938,137.915z"/>
<path d="M205.416,162.122c11.016,1.804,22.115,2.705,33.218,2.705c10.34,0,20.685-0.782,30.961-2.346l27.024-4.114v-0.001
	c15.369-2.34,26.522-15.321,26.522-30.866c0-17.365-14.128-31.491-31.492-31.491H188.852c-17.365,0-31.491,14.127-31.491,31.491
	c0,15.505,11.104,28.574,26.404,31.078L205.416,162.122z M172.359,127.5c0-9.093,7.398-16.492,16.492-16.492h102.798
	c9.094,0,16.493,7.398,16.493,16.492c0,8.077-5.795,14.822-13.781,16.038l-27.024,4.115c-19.758,3.007-39.777,2.897-59.498-0.332
	l-21.652-3.545C178.175,142.464,172.359,135.619,172.359,127.5z"/>
<path d="M435.83,512c10.513,0,19.067-8.552,19.067-19.066v-87.198c0-9.194-1.301-18.177-3.863-26.849
	c4.605-0.722,8.684-3.884,10.337-8.578l4.65-13.193c1.161-3.297,0.969-6.847-0.541-9.998c-1.51-3.151-4.156-5.526-7.452-6.687
	l-20.52-7.23c0.558-1.924,0.864-3.933,0.864-5.995v-26.678c0-3.323-0.765-6.475-2.122-9.295
	c16.619-11.257,32.141-24.447,46.369-39.449c2.571-2.713,3.942-6.413,3.76-10.15c-0.182-3.742-1.908-7.297-4.735-9.752
	c0-0.001,0-0.001-0.001-0.001l-17.802-15.46c-5.562-4.826-13.915-4.436-19.014,0.895c-10.236,10.693-21.304,20.278-33.018,28.617
	v-11.631c0-10.847-3.855-21.387-10.857-29.676c-4.403-5.212-6.828-12.107-6.828-19.415v-39.031v-34.495
	c0-4.142-3.357-7.499-7.499-7.499s-7.499,3.357-7.499,7.499v22.203h-7.416v-95.16h5.75c0.919,0,1.667,0.747,1.667,1.666v35.983
	c0,4.142,3.357,7.499,7.499,7.499s7.499-3.357,7.499-7.499V40.39c0-8.598-6.546-15.695-14.918-16.572c0,0,0,0,0.001,0V7.499
	c0-4.142-3.357-7.499-7.499-7.499c-4.142,0-7.499,3.357-7.499,7.499v16.225l0,0c-4.142,0-7.499,3.357-7.499,7.499v105.085
	c-3.022,2.242-4.993,5.824-4.993,9.867v110.047c-7.152-3.484-14.782-6.698-21.813-9.658c-5.144-2.166-10.114-4.26-14.398-6.246
	c22.199-28.362,33.592-63.882,33.592-81.27v-51.34c0-30.301-12.611-58.54-34.601-77.474c-21.521-18.53-46.472-28.081-74.161-28.39
	c-0.056-0.002-0.112-0.002-0.168,0c-27.691,0.311-52.643,9.862-74.163,28.392c-21.99,18.934-34.601,47.172-34.601,77.474v51.34
	c0,17.388,11.393,52.909,33.593,81.271c-4.283,1.986-9.253,4.079-14.397,6.244c-18.425,7.754-39.308,16.545-48.342,28.36
	c-8.147,10.655-10.157,26.001-5.532,39.041l-2.162,0.402c-0.252,0.047-0.502,0.106-0.748,0.18
	c-19.843,5.842-36.881,17.687-49.271,34.25c-12.39,16.565-18.94,36.253-18.94,56.939v9.455c0,4.142,3.358,7.499,7.499,7.499
	s7.499-3.357,7.499-7.499v-9.455c0-17.422,5.516-34.003,15.951-47.954c10.36-13.851,24.578-23.782,41.137-28.74l8.109-1.507
	c4.181,3.779,9.913,7.582,17.346,11.518c0.069,0.036,0.136,0.073,0.205,0.109c0.589,0.311,1.188,0.623,1.798,0.936
	c0.391,0.2,0.792,0.402,1.191,0.603c0.644,0.323,1.293,0.648,1.96,0.973c0.698,0.342,1.407,0.684,2.13,1.027
	c0.329,0.156,0.66,0.313,0.994,0.469c1.02,0.479,2.055,0.958,3.124,1.441c33.591,15.177,69.642,22.764,105.703,22.762
	c36.052-0.002,72.118-7.588,105.702-22.761c0.935-0.422,1.85-0.845,2.752-1.266c0.221-0.103,0.436-0.206,0.654-0.309
	c0.683-0.322,1.357-0.643,2.019-0.964c0.11-0.054,0.226-0.107,0.336-0.161v21.739c0,8.021,5.606,14.757,13.105,16.495
	l15.597,116.854 M380.417,497.001H101.886v-53.345c0-4.142-3.358-7.499-7.499-7.499s-7.499,3.357-7.499,7.499v53.345H44.672
	c-2.243,0-4.067-1.824-4.067-4.066v-42.41c0-4.142-3.358-7.499-7.499-7.499s-7.499,3.357-7.499,7.499v42.41
	c0,10.513,8.553,19.066,19.066,19.066H435.83 M146.404,159.049v-51.34c0-25.931,10.711-50.026,29.388-66.106
	c18.747-16.141,40.432-24.471,64.458-24.758c24.025,0.287,45.711,8.617,64.458,24.758c18.677,16.082,29.388,40.176,29.388,66.106
	v51.34c0,11.353-7.541,38.614-24.309,63.674c-3.276,4.896-7.124,10.02-11.545,14.972c-0.009,0.01-0.02,0.02-0.029,0.03
	c-4.385,4.9-9.043,9.275-13.847,13.002c-0.097,0.076-0.184,0.162-0.277,0.241c-11.874,9.149-26.453,15.732-43.841,15.732
	c-17.377,0-31.947-6.574-43.818-15.715c-0.099-0.086-0.192-0.177-0.296-0.258c-4.801-3.726-9.46-8.101-13.847-13.002
	c-0.018-0.02-0.038-0.038-0.057-0.058c-4.411-4.942-8.251-10.056-11.52-14.944C153.947,197.664,146.404,170.402,146.404,159.049z
	 M293.06,308.646c-14.54,11.028-32.185,17.241-50.667,17.687c-0.478,0.013-0.956,0.008-1.435,0.006l-0.706-0.002l-0.706,0.002
	c-0.478,0.002-0.957,0.007-1.433-0.006c-18.483-0.446-36.128-6.658-50.668-17.687c7.354-6.405,11.593-16.565,11.593-25.39v-12.647
	c12.153,6.893,25.899,11.09,41.213,11.09c15.315,0,29.061-4.199,41.216-11.092v12.649
	C281.466,292.081,285.706,302.241,293.06,308.646z M351.715,325.048c-3.519,1.923-7.513,3.898-11.937,5.897
	c-63.251,28.574-135.803,28.574-199.053-0.001c-0.625-0.282-1.233-0.561-1.831-0.838c-0.166-0.077-0.328-0.152-0.491-0.229
	c-0.454-0.211-0.901-0.421-1.34-0.629c-0.147-0.07-0.295-0.14-0.441-0.209c-1.163-0.555-2.274-1.099-3.33-1.629
	c-0.051-0.026-0.1-0.051-0.151-0.076c-0.49-0.247-0.969-0.491-1.437-0.733c-0.062-0.032-0.124-0.064-0.186-0.096
	c-1.56-0.809-2.997-1.587-4.319-2.335c-0.009-0.005-0.017-0.01-0.026-0.015c-1.332-0.754-2.547-1.476-3.657-2.167
	c-0.026-0.017-0.052-0.033-0.078-0.049c-0.327-0.204-0.644-0.405-0.953-0.604c-0.046-0.03-0.093-0.06-0.138-0.089
	c-0.326-0.211-0.644-0.419-0.95-0.624c-0.004-0.003-0.009-0.006-0.013-0.009c-0.289-0.193-0.566-0.382-0.837-0.569
	c-0.13-0.09-0.256-0.178-0.383-0.267c-0.121-0.085-0.241-0.169-0.359-0.253c-0.166-0.118-0.33-0.236-0.49-0.352
	c-0.04-0.029-0.079-0.058-0.118-0.086c-2.514-1.841-4.175-3.384-5.271-4.62c-0.042-0.048-0.091-0.087-0.134-0.133
	c-0.764-0.877-1.216-1.568-1.48-2.067c-4.676-8.828-3.892-20.702,1.864-28.229c6.612-8.649,26.37-16.966,42.245-23.647
	c6.817-2.87,13.357-5.622,18.761-8.321c2.869,2.924,5.83,5.657,8.858,8.176v23.012c0,7.495-5.369,15.4-11.264,16.586
	c-2.732,0.549-4.934,2.568-5.718,5.243c-0.784,2.674-0.02,5.562,1.983,7.499c18.52,17.914,42.923,28.121,68.714,28.744
	c0.621,0.014,1.244,0.013,1.865,0.01l0.635-0.002l0.635,0.002c0.621,0.002,1.243,0.004,1.867-0.01
	c25.79-0.623,50.193-10.83,68.712-28.744c2.004-1.937,2.767-4.826,1.983-7.499c-0.784-2.675-2.986-4.694-5.718-5.243
	c-5.895-1.185-11.264-9.09-11.264-16.586v-23.012c3.028-2.519,5.99-5.253,8.858-8.176c5.404,2.699,11.941,5.452,18.758,8.321
	c9.126,3.843,19.311,8.131,27.633,12.702L351.715,325.048L351.715,325.048z M411.808,305.965c3.872-2.06,7.698-4.211,11.471-6.464
	c0.053,0.336,0.094,0.676,0.094,1.026v26.678c0,0.334-0.032,0.662-0.08,0.986l-11.484-4.047v-18.179H411.808z M371.445,365.584h-2.8
	c-1.064,0-1.931-0.866-1.931-1.931v-34.244V148.884h12.409v36.324c0,10.845,3.682,21.178,10.368,29.093
	c4.717,5.586,7.316,12.688,7.316,19.999v25.637v41.492v28.024v26.671v9.46H371.445z M387.705,438.223l-7.693-57.641h18.825
	l25.387,79.23l-32.474,8.708L387.705,438.223z M395.508,496.682l-1.757-13.168l35.055-9.4l4.025,12.561L395.508,496.682z
	 M439.897,459.575l-28.089-87.664v-5.194l21.674,7.637c4.254,9.949,6.414,20.491,6.414,31.383v53.838H439.897z M451.236,353.939
	l-3.375,9.577l-36.052-12.703v-10.767L451.236,353.939z M411.808,288.84v-24.778c15.425-9.97,29.891-21.914,43.069-35.561
	l15.982,13.879C453.119,260.918,433.301,276.504,411.808,288.84z"/>
<g>
</g>
<g>
</g>
<g>
</g>
<g>
</g>
<g>
</g>
<g>
</g>
<g>
</g>
<g>
</g>
<g>
</g>
<g>
</g>
<g>
</g>
<g>
</g>
<g>
</g>
<g>
</g>
<g>
</g>
</svg>
